<svg id="Layer_1" data-name="Layer 1" xmlns="http://www.w3.org/2000/svg" viewBox="0 0 1000 1000"><defs><style>.cls-1,.cls-2,.cls-5{fill:none;}.cls-1,.cls-2{stroke:#fff;stroke-miterlimit:10;}.cls-1{stroke-width:8px;}.cls-2{stroke-width:9px;}.cls-3{fill:#737373;}.cls-4{fill:#cfd8dc;}.cls-6{fill:#555d61;}.cls-7{fill:#e94739;}.cls-8{fill:#c9211f;}.cls-10,.cls-9{fill:#fff;}.cls-10{font-size:191.73px;font-family:ShowcardGothic-Reg, Showcard Gothic;}</style></defs><path class="cls-1" d="M469.05,499.14,426.77,560a30.72,30.72,0,0,1-4-8.91,28.55,28.55,0,0,1-.82-3.87l-1.15-7.9-10.1-69.59-48.54-22.25-.45.14L366.57,507a32,32,0,0,1-.49,8.62L346.4,617.28A31.69,31.69,0,0,1,315.33,643a32.23,32.23,0,0,1-6.06-.59,31.68,31.68,0,0,1-25.08-37.14L303,507.82l-8-97.38a30.7,30.7,0,0,1,.08-3.47c-.31-1.33-.42-2.71-.61-4.08a28.27,28.27,0,0,1-4,.68,27.08,27.08,0,0,1-21-10l-63-77a27.15,27.15,0,0,1,8-41.07l42.62-23.22,4.46-26.81a16.72,16.72,0,0,1,17.94-13.92l21.85,1.91c1.09,16.23,1.31,56.92-19.09,87l-13,7.07L294,337.8l.09-22.7c25.7-33.79,26.68-79.17,25.51-100l63.24,5.51c-3.16,17.77-9.53,72.43,19.83,115.53l-.24,59.3c0,.26-.06.49-.08.75l50.44,23.11a31.65,31.65,0,0,1,18.16,24.26l2.82,19.36L475.51,475,477,485.43h0Z"/><path class="cls-1" d="M569.81,313.66l0,0-.13.08c-5.61,3.67-14.66,6.41-19,5.32h0c-4.53,0-6.83,2.78-8,3.37l.09.31-70,15.94a27.45,27.45,0,0,1-2.83.49,27.14,27.14,0,0,1-17.38-3.8l-30.35-18.56c-26.32-35.13-25.29-83.15-24.48-95.93l26.38-.82a16.69,16.69,0,0,1,17.05,19.19l-3.51,23.33,33.82,20.67L542.86,267v-.41H570v1.11a27.1,27.1,0,0,1,13.73,17.84C586.32,296.83,579.19,307.63,569.81,313.66Z"/><path class="cls-2" d="M386,193a53,53,0,1,0-67.65-32.12A53,53,0,0,0,386,193Z"/><g id="_033---Mountain-Summit" data-name="033---Mountain-Summit"><path id="Shape" class="cls-3" d="M706.6,495.22,664,566.65a6.51,6.51,0,0,1-11.75.1l-17.81-29.08a6.94,6.94,0,0,0-6.06-3.71,7.19,7.19,0,0,0-5.91,4.1l-25.14,46c-1.45,2.64-3.81,4.17-6.31,4.08s-4.78-1.81-6.11-4.57l-25.88-54.06c-1.3-2.68-3.5-4.38-5.93-4.55a6.88,6.88,0,0,0-6.27,3.67l-17.73,28.89a7,7,0,0,1-5.73,3.63,6.92,6.92,0,0,1-5.8-3.44l-34.41-52.4,109.38-157.8a6.7,6.7,0,0,1,11.53,0Z"/><path id="Shape-2" data-name="Shape" class="cls-4" d="M604.1,347.47a6.7,6.7,0,0,0-11.53,0l-5.46,7.88,97,139.87-37.32,62.65,5.45,8.9a6.51,6.51,0,0,0,11.75-.1l42.57-71.43Z"/><path class="cls-5" d="M813.3,649.11,706.59,495.22h0l-10.35,17.4-32.2,54c-.09.16-.18.3-.27.45a7,7,0,0,1-5.58,3.31,6,6,0,0,1-3.29-1h0a8,8,0,0,1-1.41-1.15c-.21-.23-.42-.47-.62-.72s-.39-.54-.57-.84l-5.44-8.89-12.36-20.18a7,7,0,0,0-6.07-3.71,7.23,7.23,0,0,0-5.91,4.1l-25.14,46c-1.44,2.63-3.81,4.16-6.3,4.06s-4.79-1.8-6.11-4.56l-25.9-54.06c-1.29-2.68-3.5-4.38-5.92-4.55a6.88,6.88,0,0,0-6.27,3.67l-17.73,28.89a7,7,0,0,1-5.73,3.63,6.92,6.92,0,0,1-5.8-3.44l-24.52-37.35-9.89-15.06L436.82,572.1l-53.44,77a12.66,12.66,0,0,0-1.34,11c1.26,3.69,4.07,6.06,7.18,6.06H807.46c3.1,0,5.92-2.37,7.18-6.06A12.79,12.79,0,0,0,813.3,649.11ZM483.12,520.17l12.75,19.43,2.84,19.53A31.66,31.66,0,0,1,471.91,595l-.61.08,12.91-18.58a12,12,0,0,0-.53-13.8c-3.07-3.61-7.8-3.29-10.57.69h0L453.23,592a31.61,31.61,0,0,1-12.4-11Z"/><path id="Shape-3" data-name="Shape" class="cls-6" d="M813.29,649.11,706.6,495.22l-10.38,17.41,94.63,136.48a12.7,12.7,0,0,1,1.34,11c-1.26,3.7-4.08,6.07-7.18,6.07h22.45c3.1,0,5.91-2.37,7.17-6.07A12.66,12.66,0,0,0,813.29,649.11Z"/><path id="Shape-4" data-name="Shape" class="cls-7" d="M733,129.47V217.3H598.34V119.71H725.53C729.66,119.71,733,124.08,733,129.47Z"/><path id="Shape-5" data-name="Shape" class="cls-8" d="M725.53,119.71H703.08c4.14,0,7.49,4.37,7.49,9.76V217.3H733V129.47C733,124.08,729.66,119.71,725.53,119.71Z"/><path id="Shape-6" data-name="Shape" class="cls-7" d="M798.18,259.16a12,12,0,0,1,1.64,10.67c-1.16,3.66-3.91,6-7,6H695.6c-3.8.06-7.47-1.88-10.17-5.37L733,217.3v-39h59.86c3,0,5.79,2.36,7,6A12,12,0,0,1,798.18,195L778.8,220.13a12,12,0,0,0,0,13.85Z"/><path id="Shape-7" data-name="Shape" class="cls-8" d="M778.8,234a12,12,0,0,1,0-13.85L798.18,195a12,12,0,0,0,1.64-10.67c-1.16-3.66-3.91-6-7-6H770.42c3,0,5.79,2.36,7,6A12,12,0,0,1,775.73,195l-19.37,25.18a12,12,0,0,0,0,13.85l19.37,25.18a12,12,0,0,1,1.65,10.67c-1.17,3.66-3.92,6-7,6h22.45c3,0,5.79-2.36,7-6a12,12,0,0,0-1.64-10.67Z"/><path id="Shape-8" data-name="Shape" class="cls-8" d="M733,217.3l-47.58,53.18a22.32,22.32,0,0,1-4.79-14.15v-39Z"/><path id="Shape-9" data-name="Shape" class="cls-9" d="M592.78,390.8,521.4,493.74a12,12,0,0,0,.53,13.79c3.06,3.61,7.79,3.31,10.56-.69L603.88,403.9a12,12,0,0,0-.53-13.79c-3.07-3.62-7.8-3.31-10.57.69Z"/><path class="cls-9" d="M484.21,576.54,471.3,595.12l-20,28.82c-2.78,4-7.51,4.31-10.57.69a12,12,0,0,1-.53-13.79l13-18.8,19.84-28.61h0c2.77-4,7.5-4.3,10.57-.69A12,12,0,0,1,484.21,576.54Z"/><path id="Shape-10" data-name="Shape" class="cls-9" d="M815.38,652c-223.84-322.81-209.27-302.78-213-305.37V236.48h67.34v29.29c0,16.17,10,29.27,22.44,29.27h97.27c6.06,0,11.53-4.76,13.85-12.07s1-15.71-3.28-21.29l-19.36-25.2L800,211.3c4.29-5.58,5.6-14,3.27-21.32s-7.79-12.07-13.87-12H737.05v-39c0-10.79-6.69-19.52-15-19.52H602.38v-9.77c0-5.38-3.35-9.75-7.49-9.75s-7.48,4.37-7.48,9.75v237c-2.78,1.93,7.25-12.44-103,146.73-15.24,22-32.78,47.3-53,76.4-17,24.59-36,51.91-57,82.24-4.06,5.85-5.1,14.28-2.64,21.5s7.94,11.87,14,11.87H804c6.06,0,11.55-4.65,14-11.87S819.45,657.85,815.38,652ZM385.51,665.08l51.88-74.64,42.29-60.84L492.43,549l16,24.41c2.91,4.4,7.15,6.9,11.61,6.83s8.64-2.75,11.44-7.26l17.74-28.94,25.86,54c2.64,5.53,7.23,9,12.23,9.19s9.74-2.85,12.66-8.16l25.16-45.92L643,582.28c2.86,4.66,7.21,7.37,11.78,7.32s8.9-2.81,11.71-7.53l31.41-52.67,5.67-9.54L804,665.86l-14.63,0ZM602.38,138.91H722.09V217H602.38Zm187,58.54-19.37,25.19a23.91,23.91,0,0,0,0,27.67l19.37,25.21h-92l37-41.39-.06-.09a10.94,10.94,0,0,0,2.68-7.31V197.45Zm-104.74,39h24.68l-24.68,27.58Zm-89.54,127,98.23,141.66-38.69,64.93-6.57-10.73L636.86,541c-2.93-4.78-7.42-7.5-12.11-7.32s-9,3.19-11.77,8.18l-25.13,46-25.92-54.15c-2.61-5.3-7-8.65-11.84-9s-9.48,2.37-12.51,7.28l-17.73,28.82-30-45.72L589,372.4Z"/><path id="Shape-11" data-name="Shape" class="cls-9" d="M628.26,168.5h74.82c4.14,0,7.49-4.37,7.49-9.76s-3.35-9.75-7.49-9.75H628.26c-4.13,0-7.48,4.37-7.48,9.75S624.13,168.5,628.26,168.5Z"/></g><text class="cls-10" transform="translate(60.23 850.65)">Joy Tech</text></svg>